<svg width="188" height="189" viewBox="0 0 188 189" fill="none" xmlns="http://www.w3.org/2000/svg">
<g id="Informative" filter="url(#filter0_d_6_857)">
<rect x="24" y="24.5836" width="102" height="102" rx="12" fill="white"/>
<g id="Icons">
<path id="Connection (Stroke)" fill-rule="evenodd" clip-rule="evenodd" d="M96.2258 53.4741C96.6134 53.0867 97.2416 53.0868 97.629 53.4743C103.629 59.4769 107 67.6167 107 76.1039C107 84.5911 103.629 92.7309 97.629 98.7334C97.2416 99.121 96.6134 99.1211 96.2258 98.7337C95.8383 98.3463 95.8381 97.718 96.2255 97.3305C101.854 91.7001 105.016 84.065 105.016 76.1039C105.016 68.1428 101.854 60.5077 96.2255 54.8773C95.8381 54.4897 95.8383 53.8615 96.2258 53.4741ZM53.7829 53.4745C54.1702 53.8622 54.1699 54.4904 53.7822 54.8777C50.9931 57.6643 48.7806 60.9732 47.271 64.6153C45.7614 68.2574 44.9844 72.1613 44.9844 76.1039C44.9844 80.0465 45.7614 83.9504 47.271 87.5925C48.7806 91.2346 50.9931 94.5435 53.7822 97.33C54.1699 97.7174 54.1702 98.3456 53.7829 98.7333C53.3955 99.1209 52.7673 99.1212 52.3796 98.7339C49.4061 95.763 47.0472 92.2353 45.4378 88.3523C43.8284 84.4693 43 80.3072 43 76.1039C43 71.9006 43.8284 67.7385 45.4378 63.8555C47.0472 59.9725 49.4061 56.4447 52.3796 53.4739C52.7673 53.0866 53.3955 53.0869 53.7829 53.4745ZM60.0435 59.7353C60.4309 60.1228 60.4308 60.7511 60.0433 61.1385C58.0783 63.1029 56.5195 65.4352 55.456 68.0022C54.3925 70.5691 53.8451 73.3205 53.8451 76.099C53.8451 78.8775 54.3925 81.6288 55.456 84.1958C56.5195 86.7628 58.0783 89.0951 60.0433 91.0595C60.4308 91.4469 60.4309 92.0752 60.0435 92.4627C59.6561 92.8502 59.0278 92.8503 58.6403 92.4629C56.4909 90.3142 54.786 87.7631 53.6227 84.9554C52.4594 82.1476 51.8607 79.1382 51.8607 76.099C51.8607 73.0598 52.4594 70.0504 53.6227 67.2426C54.786 64.4349 56.4909 61.8838 58.6403 59.7351C59.0278 59.3476 59.6561 59.3477 60.0435 59.7353ZM89.9646 59.7353C90.352 59.3477 90.9803 59.3476 91.3678 59.7351C93.5172 61.8838 95.2222 64.4349 96.3854 67.2426C97.5487 70.0504 98.1474 73.0598 98.1474 76.099C98.1474 79.1382 97.5487 82.1476 96.3854 84.9554C95.2222 87.7631 93.5172 90.3142 91.3678 92.4629C90.9803 92.8503 90.352 92.8502 89.9646 92.4627C89.5772 92.0752 89.5773 91.4469 89.9648 91.0595C91.9298 89.0951 93.4886 86.7628 94.5521 84.1958C95.6156 81.6288 96.163 78.8775 96.163 76.099C96.163 73.3205 95.6156 70.5691 94.5521 68.0022C93.4886 65.4352 91.9298 63.1029 89.9648 61.1385C89.5773 60.7511 89.5772 60.1228 89.9646 59.7353ZM66.2644 66.0055C66.6521 66.3927 66.6525 67.021 66.2652 67.4087C63.9608 69.7156 62.6664 72.843 62.6664 76.1038C62.6664 79.3645 63.9608 82.4919 66.2652 84.7989C66.6525 85.1866 66.6521 85.8148 66.2644 86.2021C65.8767 86.5894 65.2485 86.589 64.8612 86.2013C62.1851 83.5223 60.6819 79.8905 60.6819 76.1038C60.6819 72.3171 62.1851 68.6853 64.8612 66.0062C65.2485 65.6185 65.8767 65.6182 66.2644 66.0055ZM83.7125 66.007C84.0993 65.6189 84.7276 65.6178 85.1157 66.0047C86.4448 67.3293 87.4994 68.9032 88.2189 70.6362C88.9385 72.3693 89.3089 74.2273 89.3089 76.1038C89.3089 77.9803 88.9385 79.8383 88.2189 81.5713C87.4994 83.3043 86.4448 84.8783 85.1157 86.2029C84.7276 86.5897 84.0993 86.5887 83.7125 86.2005C83.3257 85.8124 83.3267 85.1841 83.7149 84.7973C84.859 83.6571 85.7668 82.3022 86.3862 80.8103C87.0056 79.3185 87.3245 77.7191 87.3245 76.1038C87.3245 74.4885 87.0056 72.889 86.3862 71.3972C85.7668 69.9054 84.859 68.5505 83.7149 67.4102C83.3267 67.0234 83.3257 66.3952 83.7125 66.007ZM74.9992 72.6709C73.1031 72.6709 71.5661 74.208 71.5661 76.104C71.5661 78.0001 73.1031 79.5371 74.9992 79.5371C76.8952 79.5371 78.4322 78.0001 78.4322 76.104C78.4322 74.208 76.8952 72.6709 74.9992 72.6709ZM69.5816 76.104C69.5816 73.112 72.0071 70.6865 74.9992 70.6865C77.9912 70.6865 80.4167 73.112 80.4167 76.104C80.4167 79.096 77.9912 81.5216 74.9992 81.5216C72.0071 81.5216 69.5816 79.096 69.5816 76.104Z" fill="#4FA67C"/>
</g>
</g>
<defs>
<filter id="filter0_d_6_857" x="0" y="0.583618" width="188" height="188" filterUnits="userSpaceOnUse" color-interpolation-filters="sRGB">
<feFlood flood-opacity="0" result="BackgroundImageFix"/>
<feColorMatrix in="SourceAlpha" type="matrix" values="0 0 0 0 0 0 0 0 0 0 0 0 0 0 0 0 0 0 127 0" result="hardAlpha"/>
<feOffset dx="19" dy="19"/>
<feGaussianBlur stdDeviation="21.5"/>
<feColorMatrix type="matrix" values="0 0 0 0 0 0 0 0 0 0 0 0 0 0 0 0 0 0 0.09 0"/>
<feBlend mode="normal" in2="BackgroundImageFix" result="effect1_dropShadow_6_857"/>
<feBlend mode="normal" in="SourceGraphic" in2="effect1_dropShadow_6_857" result="shape"/>
</filter>
</defs>
</svg>
