<svg width="162" height="143" viewBox="0 0 162 143" fill="none" xmlns="http://www.w3.org/2000/svg">
<g id="Navigation" filter="url(#filter0_d_2_2207)">
<rect x="24" y="24.782" width="113.203" height="56.1007" rx="12" fill="white"/>
<g id="Icons">
<path id="Arrow" fill-rule="evenodd" clip-rule="evenodd" d="M62.0181 49.0178C62.3523 49.3006 62.3974 49.8051 62.119 50.1445L59.9141 52.8323L62.119 55.5202C62.3974 55.8596 62.3523 56.364 62.0181 56.6469C61.684 56.9297 61.1875 56.8839 60.909 56.5445L58.284 53.3445C58.0407 53.0478 58.0407 52.6169 58.284 52.3202L60.909 49.1202C61.1875 48.7808 61.684 48.7349 62.0181 49.0178Z" fill="#4FA67C"/>
</g>
<rect id="Rectangle 73" x="80.1016" y="48.782" width="1" height="8.10072" fill="#4FA67C"/>
<g id="Icons_2">
<path id="Arrow_2" fill-rule="evenodd" clip-rule="evenodd" d="M99.185 56.6469C98.8509 56.364 98.8057 55.8596 99.0842 55.5202L101.289 52.8323L99.0842 50.1445C98.8057 49.8051 98.8509 49.3006 99.185 49.0178C99.5191 48.7349 100.016 48.7808 100.294 49.1202L102.919 52.3202C103.162 52.6169 103.162 53.0478 102.919 53.3445L100.294 56.5445C100.016 56.8839 99.5191 56.9297 99.185 56.6469Z" fill="#4FA67C"/>
</g>
</g>
<defs>
<filter id="filter0_d_2_2207" x="0" y="0.781982" width="199.203" height="142.101" filterUnits="userSpaceOnUse" color-interpolation-filters="sRGB">
<feFlood flood-opacity="0" result="BackgroundImageFix"/>
<feColorMatrix in="SourceAlpha" type="matrix" values="0 0 0 0 0 0 0 0 0 0 0 0 0 0 0 0 0 0 127 0" result="hardAlpha"/>
<feOffset dx="19" dy="19"/>
<feGaussianBlur stdDeviation="21.5"/>
<feColorMatrix type="matrix" values="0 0 0 0 0 0 0 0 0 0 0 0 0 0 0 0 0 0 0.09 0"/>
<feBlend mode="normal" in2="BackgroundImageFix" result="effect1_dropShadow_2_2207"/>
<feBlend mode="normal" in="SourceGraphic" in2="effect1_dropShadow_2_2207" result="shape"/>
</filter>
</defs>
</svg>
