<svg width="25" height="26" viewBox="0 0 25 26" fill="none" xmlns="http://www.w3.org/2000/svg">
<path id="Union" fill-rule="evenodd" clip-rule="evenodd" d="M20.6225 0.317139L20.8279 0.567711C23.1769 3.42232 24.3972 7.08125 24.2466 10.8185C24.096 14.5557 22.5855 18.0982 20.015 20.7429C17.4444 23.3876 14.0015 24.9413 10.3695 25.0957C6.7375 25.2502 3.1818 23.994 0.407943 21.5765L0.164429 21.3652L1.47588 20.0157L1.68126 20.1908C4.10511 22.2586 7.19173 23.321 10.3369 23.1701C13.482 23.0192 16.4591 21.6659 18.6855 19.375C20.9118 17.0841 22.2271 14.0207 22.3737 10.7844C22.5204 7.54812 21.4878 4.37204 19.4783 1.87793L19.3081 1.6666L20.6225 0.317139ZM12.9167 17.9713C11.9169 18.3999 10.8443 18.6197 9.76121 18.6179C8.01747 18.6176 6.31939 18.0444 4.9144 16.9817L4.63861 16.7734L5.9618 15.4088L6.16424 15.5507C7.38504 16.421 8.86401 16.8226 10.3432 16.6856C11.8224 16.5487 13.2079 15.8817 14.258 14.8011C15.3082 13.7205 15.9564 12.2948 16.0895 10.7728C16.2226 9.25075 15.8322 7.72892 14.9865 6.47274L14.8486 6.26443L16.1718 4.90289L16.3742 5.18667C17.5271 6.8084 18.0809 8.79969 17.9363 10.8035C17.7917 12.8073 16.9581 14.6926 15.585 16.1213C14.8235 16.9138 13.9165 17.5427 12.9167 17.9713Z" fill="#FBCC0B"/>
</svg>
